<?xml version="1.0" encoding="UTF-8" standalone="no"?>
<!-- Created with Inkscape (http://www.inkscape.org/) -->

<svg
   width="210.0mm"
   height="297.0mm"
   viewBox="0 0 210.0 297.0"
   version="1.1"
   id="SVGRoot"
   sodipodi:docname="box.svg"
   inkscape:version="1.1 (c68e22c387, 2021-05-23)"
   xmlns:inkscape="http://www.inkscape.org/namespaces/inkscape"
   xmlns:sodipodi="http://sodipodi.sourceforge.net/DTD/sodipodi-0.dtd"
   xmlns="http://www.w3.org/2000/svg"
   xmlns:svg="http://www.w3.org/2000/svg">
  <sodipodi:namedview
     id="namedview1168"
     pagecolor="#505050"
     bordercolor="#eeeeee"
     borderopacity="1"
     inkscape:pageshadow="0"
     inkscape:pageopacity="0"
     inkscape:pagecheckerboard="0"
     inkscape:document-units="mm"
     showgrid="false"
     inkscape:zoom="1.0179639"
     inkscape:cx="439.5208"
     inkscape:cy="515.13453"
     inkscape:window-width="1920"
     inkscape:window-height="1001"
     inkscape:window-x="-9"
     inkscape:window-y="-9"
     inkscape:window-maximized="1"
     inkscape:current-layer="text6528"
     showguides="true"
     inkscape:guide-bbox="true"
     inkscape:snap-global="false"
     inkscape:rotation="-1">
    <sodipodi:guide
       position="28.211324,194.49273"
       orientation="0,-1"
       id="guide1834" />
    <sodipodi:guide
       position="33.26547,235.15564"
       orientation="1,0"
       id="guide1836" />
    <sodipodi:guide
       position="28.25727,236.62593"
       orientation="0,-1"
       id="guide1838" />
    <sodipodi:guide
       position="13.320605,247.74626"
       orientation="0,-1"
       id="guide1771" />
    <sodipodi:guide
       position="13.385584,247.74626"
       orientation="1,0"
       id="guide1773" />
    <sodipodi:guide
       position="17.659775,274.68742"
       orientation="0,-1"
       id="guide7473" />
  </sodipodi:namedview>
  <defs
     id="defs1163">
    <rect
       x="373.57129"
       y="662.83255"
       width="186.76079"
       height="51.402556"
       id="rect4069" />
    <rect
       x="234.61238"
       y="54.967374"
       width="203.68883"
       height="53.111665"
       id="rect5906" />
  </defs>
  <g
     inkscape:label="Layer 1"
     inkscape:groupmode="layer"
     id="layer1">
    <g
       id="panel2136"
       style="fill:none">
      <path
         style="fill:none;stroke:#000000;stroke-width:1"
         d="M 46.35 120.8 L 60.3625 120.8 L 60.3625 117.7 L 70.5125 117.7 L 70.5125 120.8 L 84.45 120.8 L 84.45 117.7 L 94.6 117.7 L 94.6 120.8 L 108.537 120.8 L 108.537 117.7 L 118.687 117.7 L 118.687 120.8 L 132.7 120.8"
         id="path1590" />
      <path
         style="fill:none;stroke:#000000;stroke-width:1"
         d="M 132.7 120.8 L 132.7 130.95 L 129.6 130.95 L 129.6 140.8 L 132.7 140.8 L 132.7 150.95"
         id="path1592" />
      <path
         style="fill:none;stroke:#000000;stroke-width:1"
         d="M 132.7 150.95 L 118.687 150.95 L 118.687 150.95 L 108.537 150.95 L 108.537 150.95 L 94.6 150.95 L 94.6 150.95 L 84.45 150.95 L 84.45 150.95 L 70.5125 150.95 L 70.5125 150.95 L 60.3625 150.95 L 60.3625 150.95 L 46.35 150.95"
         id="path1594" />
      <path
         style="fill:none;stroke:#000000;stroke-width:1"
         d="M 46.35 150.95 L 46.35 140.8 L 49.45 140.8 L 49.45 130.95 L 46.35 130.95 L 46.35 120.8"
         id="path1596" />
    </g>
    <g
       id="panel182"
       style="fill:none">
      <path
         style="fill:none;stroke:#000000;stroke-width:1"
         d="M 8.1 49.45 L 18.1 49.45 L 18.1 46.35 L 28.25 46.35 L 28.25 49.45 L 38.25 49.45"
         id="path1599" />
      <path
         style="fill:none;stroke:#000000;stroke-width:1"
         d="M 38.25 49.45 L 38.25 61.725 L 41.35 61.725 L 41.35 71.875 L 38.25 71.875 L 38.25 87.175 L 41.35 87.175 L 41.35 97.325 L 38.25 97.325 L 38.25 109.6"
         id="path1601" />
      <path
         style="fill:none;stroke:#000000;stroke-width:1"
         d="M 38.25 109.6 L 28.25 109.6 L 28.25 112.7 L 18.1 112.7 L 18.1 109.6 L 8.1 109.6"
         id="path1603" />
      <path
         style="fill:none;stroke:#000000;stroke-width:1"
         d="M 8.1 109.6 L 8.1 97.325 L 8.1 97.325 L 8.1 87.175 L 8.1 87.175 L 8.1 71.875 L 8.1 71.875 L 8.1 61.725 L 8.1 61.725 L 8.1 49.45"
         id="path1605" />
    </g>
    <g
       id="panel4934"
       style="fill:none">
      <path
         style="fill:none;stroke:#000000;stroke-width:1"
         d="M 46.35 46.35 L 60.5125 46.35 L 60.5125 49.45 L 70.3625 49.45 L 70.3625 46.35 L 84.6 46.35 L 84.6 49.45 L 94.45 49.45 L 94.45 46.35 L 108.687 46.35 L 108.687 49.45 L 118.537 49.45 L 118.537 46.35 L 132.7 46.35"
         id="path1608" />
      <path
         style="fill:none;stroke:#000000;stroke-width:1"
         d="M 132.7 46.35 L 132.7 61.875 L 129.6 61.875 L 129.6 71.725 L 132.7 71.725 L 132.7 87.325 L 129.6 87.325 L 129.6 97.175 L 132.7 97.175 L 132.7 112.7"
         id="path1610" />
      <path
         style="fill:none;stroke:#000000;stroke-width:1"
         d="M 132.7 112.7 L 118.537 112.7 L 118.537 109.6 L 108.687 109.6 L 108.687 112.7 L 94.45 112.7 L 94.45 109.6 L 84.6 109.6 L 84.6 112.7 L 70.3625 112.7 L 70.3625 109.6 L 60.5125 109.6 L 60.5125 112.7 L 46.35 112.7"
         id="path1612" />
      <path
         style="fill:none;stroke:#000000;stroke-width:1"
         d="M 46.35 112.7 L 46.35 97.175 L 49.45 97.175 L 49.45 87.325 L 46.35 87.325 L 46.35 71.725 L 49.45 71.725 L 49.45 61.875 L 46.35 61.875 L 46.35 46.35"
         id="path1614" />
    </g>
    <g
       id="panel5974"
       style="fill:none">
      <path
         style="fill:none;stroke:#000000;stroke-width:1"
         d="M 140.8 49.45 L 150.8 49.45 L 150.8 46.35 L 160.95 46.35 L 160.95 49.45 L 170.95 49.45"
         id="path1617" />
      <path
         style="fill:none;stroke:#000000;stroke-width:1"
         d="M 170.95 49.45 L 170.95 61.725 L 170.95 61.725 L 170.95 71.875 L 170.95 71.875 L 170.95 87.175 L 170.95 87.175 L 170.95 97.325 L 170.95 97.325 L 170.95 109.6"
         id="path1619" />
      <path
         style="fill:none;stroke:#000000;stroke-width:1"
         d="M 170.95 109.6 L 160.95 109.6 L 160.95 112.7 L 150.8 112.7 L 150.8 109.6 L 140.8 109.6"
         id="path1621" />
      <path
         style="fill:none;stroke:#000000;stroke-width:1"
         d="M 140.8 109.6 L 140.8 97.325 L 137.7 97.325 L 137.7 87.175 L 140.8 87.175 L 140.8 71.875 L 137.7 71.875 L 137.7 61.725 L 140.8 61.725 L 140.8 49.45"
         id="path1623" />
    </g>
    <g
       id="panel6616"
       style="fill:none">
      <path
         style="fill:none;stroke:#000000;stroke-width:1"
         d="M 46.35 8.1 L 60.3625 8.1 L 60.3625 8.1 L 70.5125 8.1 L 70.5125 8.1 L 84.45 8.1 L 84.45 8.1 L 94.6 8.1 L 94.6 8.1 L 108.537 8.1 L 108.537 8.1 L 118.687 8.1 L 118.687 8.1 L 132.7 8.1"
         id="path1626" />
      <path
         style="fill:none;stroke:#000000;stroke-width:1"
         d="M 132.7 8.1 L 132.7 18.25 L 129.6 18.25 L 129.6 28.1 L 132.7 28.1 L 132.7 38.25"
         id="path1628" />
      <path
         style="fill:none;stroke:#000000;stroke-width:1"
         d="M 132.7 38.25 L 118.687 38.25 L 118.687 41.35 L 108.537 41.35 L 108.537 38.25 L 94.6 38.25 L 94.6 41.35 L 84.45 41.35 L 84.45 38.25 L 70.5125 38.25 L 70.5125 41.35 L 60.3625 41.35 L 60.3625 38.25 L 46.35 38.25"
         id="path1630" />
      <path
         style="fill:none;stroke:#000000;stroke-width:1"
         d="M 46.35 38.25 L 46.35 28.1 L 49.45 28.1 L 49.45 18.25 L 46.35 18.25 L 46.35 8.1"
         id="path1632" />
    </g>
    <rect
       style="fill:none;fill-opacity:0;stroke:#000000;stroke-width:0.7;stroke-miterlimit:4;stroke-dasharray:none"
       id="rect1862"
       width="13"
       height="14"
       x="20.265471"
       y="60.374069" />
    <rect
       style="fill:none;fill-opacity:0;stroke:#000000;stroke-width:0.7;stroke-miterlimit:4;stroke-dasharray:none"
       id="rect1988"
       width="11"
       height="11"
       x="22.265472"
       y="91.507271" />
    <path
       id="rect873"
       style="fill:none;fill-opacity:0;stroke:#000000;stroke-width:0.959141"
       d="m 175.43405,143.12522 v 13.30616 h -26.51154 v 12.09229 H 81.831975 l -1.01083,-1.01083 -1.610158,1.01083 v 25.02173 l 1.702048,1.28651 1.42435,-1.28651 h 66.769085 v 11.9264 h 26.32758 v 14.37225 h 7.62281 v -76.71883 z"
       sodipodi:nodetypes="ccccccccccccccccc" />
    <rect
       style="fill:none;fill-opacity:0;stroke:#000000;stroke-width:0.594353"
       id="rect1388"
       width="2.5056465"
       height="28.405647"
       x="13.362123"
       y="65.322174" />
    <rect
       style="fill:none;fill-opacity:0;stroke:#000000;stroke-width:0.502883"
       id="rect1390"
       width="2.5971165"
       height="49.4142"
       x="161.91832"
       y="54.817902" />
    <text
       xml:space="preserve"
       transform="scale(0.26458333)"
       id="text5904"
       style="fill:black;fill-opacity:1;line-height:1.25;stroke:none;font-family:sans-serif;font-style:normal;font-weight:normal;font-size:40px;white-space:pre;shape-inside:url(#rect5906)" />
    <g
       aria-label="Jóhann"
       id="text6528"
       style="font-size:10.5833px;line-height:1.25;stroke-width:0.264583">
      <g
         aria-label="Bjartur"
         transform="matrix(0.26458333,0,0,0.26458333,-2.8586214,-0.04989742)"
         id="text4067"
         style="font-size:40px;white-space:pre;shape-inside:url(#rect4069)">
        <path
           d="m 399.41016,690.37993 q 0,2.16797 -0.82032,3.82813 -0.82031,1.66015 -2.20703,2.73437 -1.64062,1.28906 -3.61328,1.83594 -1.95312,0.54687 -4.98047,0.54687 h -10.3125 v -29.08203 h 8.61328 q 3.1836,0 4.76563,0.23438 1.58203,0.23437 3.02734,0.97656 1.60156,0.83984 2.32422,2.16797 0.72266,1.30859 0.72266,3.14453 0,2.07031 -1.05469,3.53516 -1.05469,1.44531 -2.8125,2.32422 v 0.15625 q 2.94922,0.60546 4.64844,2.59765 1.69922,1.97266 1.69922,5 z m -6.50391,-13.10547 q 0,-1.05468 -0.35156,-1.77734 -0.35157,-0.72266 -1.13282,-1.17188 -0.91796,-0.52734 -2.22656,-0.64453 -1.30859,-0.13672 -3.24219,-0.13672 h -4.60937 v 8.39844 h 5 q 1.81641,0 2.89062,-0.17578 1.07422,-0.19531 1.99219,-0.78125 0.91797,-0.58594 1.28906,-1.50391 0.39063,-0.9375 0.39063,-2.20703 z m 2.48047,13.26172 q 0,-1.75781 -0.52735,-2.79297 -0.52734,-1.03515 -1.91406,-1.75781 -0.9375,-0.48828 -2.28515,-0.625 -1.32813,-0.15625 -3.24219,-0.15625 h -6.07422 v 10.82031 h 5.11719 q 2.53906,0 4.16015,-0.2539 1.6211,-0.27344 2.65625,-0.97657 1.09375,-0.76171 1.60157,-1.73828 0.50781,-0.97656 0.50781,-2.51953 z"
           style="fill:#00c9d7"
           id="path6061" />
        <path
           d="m 411.40234,673.85649 h -4.14062 v -3.80859 h 4.14062 z m -0.23437,25.9961 q 0,3.82812 -1.95313,5.78125 -1.95312,1.95312 -5.23437,1.95312 -0.78125,0 -2.07031,-0.15625 -1.26954,-0.15625 -2.12891,-0.39062 v -3.4961 h 0.19531 q 0.54688,0.21485 1.46485,0.48829 0.9375,0.27343 1.8164,0.27343 1.40625,0 2.26563,-0.39062 0.85937,-0.39063 1.28906,-1.17188 0.42969,-0.78125 0.54687,-1.89453 0.13672,-1.09375 0.13672,-2.67578 v -17.57812 h -4.55078 v -3.08594 h 8.22266 z"
           style="fill:#00c9d7"
           id="path6063" />
        <path
           d="m 435.32812,699.32524 h -3.65234 v -2.32421 q -0.48828,0.33203 -1.32812,0.9375 -0.82032,0.58593 -1.60157,0.9375 -0.91797,0.44921 -2.10937,0.74218 -1.19141,0.3125 -2.79297,0.3125 -2.94922,0 -5,-1.95312 -2.05078,-1.95313 -2.05078,-4.98047 0,-2.48047 1.05469,-4.00391 1.07421,-1.54297 3.04687,-2.42187 1.99219,-0.87891 4.78516,-1.19141 2.79297,-0.3125 5.99609,-0.46875 v -0.5664 q 0,-1.25 -0.44922,-2.07032 -0.42969,-0.82031 -1.25,-1.28906 -0.78125,-0.44922 -1.875,-0.60547 -1.09375,-0.15625 -2.28515,-0.15625 -1.44532,0 -3.22266,0.39063 -1.77734,0.37109 -3.67188,1.09375 h -0.19531 v -3.73047 q 1.07422,-0.29297 3.10547,-0.64453 2.03125,-0.35157 4.00391,-0.35157 2.30468,0 4.0039,0.39063 1.71875,0.37109 2.96875,1.28906 1.23047,0.89844 1.875,2.32422 0.64453,1.42578 0.64453,3.53516 z m -3.65234,-5.37109 v -6.07422 q -1.67969,0.0977 -3.96484,0.29297 -2.26563,0.19531 -3.59375,0.56641 -1.58203,0.44922 -2.5586,1.40625 -0.97656,0.9375 -0.97656,2.59765 0,1.875 1.13281,2.83203 1.13282,0.9375 3.45703,0.9375 1.9336,0 3.53516,-0.74218 1.60156,-0.76172 2.96875,-1.81641 z"
           style="fill:#00c9d7"
           id="path6065" />
        <path
           d="m 456.01172,681.51274 h -0.19531 q -0.82032,-0.19531 -1.60157,-0.27343 -0.76172,-0.0977 -1.8164,-0.0977 -1.69922,0 -3.28125,0.76172 -1.58203,0.74219 -3.04688,1.93359 v 15.48828 h -3.67187 v -21.8164 h 3.67187 v 3.22265 q 2.1875,-1.75781 3.84766,-2.48046 1.67969,-0.74219 3.41797,-0.74219 0.95703,0 1.38672,0.0586 0.42968,0.0391 1.28906,0.17578 z"
           style="fill:#00c9d7"
           id="path6067" />
        <path
           d="m 470.79687,699.12993 q -1.03515,0.27344 -2.26562,0.44922 -1.21094,0.17578 -2.16797,0.17578 -3.33984,0 -5.07812,-1.79687 -1.73829,-1.79688 -1.73829,-5.76172 v -11.60156 h -2.48046 v -3.08594 h 2.48046 v -6.26953 h 3.67188 v 6.26953 h 7.57812 v 3.08594 h -7.57812 v 9.9414 q 0,1.71875 0.0781,2.69531 0.0781,0.95704 0.54688,1.79688 0.42969,0.78125 1.17187,1.15234 0.76172,0.35157 2.30469,0.35157 0.89844,0 1.875,-0.25391 0.97656,-0.27344 1.40625,-0.44922 h 0.19531 z"
           style="fill:#00c9d7"
           id="path6069" />
        <path
           d="m 493.31641,699.32524 h -3.67188 v -2.42187 q -1.85547,1.46484 -3.55469,2.24609 -1.69922,0.78125 -3.75,0.78125 -3.4375,0 -5.35156,-2.08984 -1.91406,-2.10938 -1.91406,-6.17188 v -14.16015 h 3.67187 v 12.42187 q 0,1.66016 0.15625,2.85157 0.15625,1.17187 0.66407,2.01171 0.52734,0.85938 1.36718,1.25 0.83985,0.39063 2.44141,0.39063 1.42578,0 3.10547,-0.74219 1.69922,-0.74219 3.16406,-1.89453 v -16.28906 h 3.67188 z"
           style="fill:#00c9d7"
           id="path6071" />
        <path
           d="m 514.15625,681.51274 h -0.19531 q -0.82032,-0.19531 -1.60157,-0.27343 -0.76171,-0.0977 -1.8164,-0.0977 -1.69922,0 -3.28125,0.76172 -1.58203,0.74219 -3.04688,1.93359 v 15.48828 h -3.67187 v -21.8164 h 3.67187 v 3.22265 q 2.1875,-1.75781 3.84766,-2.48046 1.67969,-0.74219 3.41797,-0.74219 0.95703,0 1.38672,0.0586 0.42968,0.0391 1.28906,0.17578 z"
           style="fill:#00c9d7"
           id="path6073" />
      </g>
    </g>
  </g>
</svg>
